<svg xmlns="http://www.w3.org/2000/svg" viewBox="0 0 793.6 137.85"><defs><style>.cls-1,.cls-2{fill:#fff;}.cls-1{opacity:0.7;}</style></defs><g id="Layer_2" data-name="Layer 2"><g id="Layer_1-2" data-name="Layer 1"><path class="cls-1" d="M30.94,24.47v96A15.47,15.47,0,0,1,15.47,136h0A15.47,15.47,0,0,1,0,120.49v-96A15.47,15.47,0,0,1,15.47,9h0A15.47,15.47,0,0,1,30.94,24.47Z"/><path class="cls-1" d="M106.33,77.45c0-8.63-1.69-14.63-7.5-14.63-6.94,0-14.25,9.75-14.25,26.07v34.34A12.73,12.73,0,0,1,71.85,136H67.68A12.73,12.73,0,0,1,55,123.23v-36c0-12.39-1.8-21.27-3.9-27.41a12.77,12.77,0,0,1,8.18-16.38h0a12.64,12.64,0,0,1,15.39,6.83,43.33,43.33,0,0,1,2.46,7.33c6.56-11.63,18.75-17.06,32.07-17.06,19.5,0,27,12.94,27,32.63v50.1A12.73,12.73,0,0,1,123.43,136h-4.36a12.73,12.73,0,0,1-12.73-12.73V77.45Z"/><path class="cls-1" d="M152.46,68.08c0-15.94,12.38-27.94,33.19-27.94a78.79,78.79,0,0,1,22.12,3.36,11.15,11.15,0,0,1,7,15.24h0a11.13,11.13,0,0,1-14.13,5.87,31.78,31.78,0,0,0-10.9-2.35c-3.94,0-7.13,1.69-7.13,5.44,0,3.94,5.63,7.88,14.07,11.44,14.81,6.19,23.44,14.06,23.44,28.51,0,16.13-11.63,30.19-33.76,30.19a85.43,85.43,0,0,1-25.62-4.1,11.16,11.16,0,0,1-6.85-15.24l.21-.46a11.17,11.17,0,0,1,14.47-5.68c3.89,1.6,8.3,3,12.17,3,5.25,0,9-2.06,9-6,0-4.69-4.69-8.63-11.06-11.06C160,90.77,152.46,82.14,152.46,68.08Z"/><path class="cls-1" d="M242.47,42.57l2-12.17a10.68,10.68,0,0,1,8.25-8.69l5.66-1.24a10.67,10.67,0,0,1,13,10.43V42.58h22.13l-3.56,21.75H271.35v41.82c0,5.44,3,8.25,8.63,8.25a37.63,37.63,0,0,0,4.44-.3,10.63,10.63,0,0,1,11.54,8h0a10.68,10.68,0,0,1-8.29,13.11,79.88,79.88,0,0,1-15.76,1.53c-18.75,0-30-6.94-30-25.5V64.33H227.09V42.58h15.38Z"/><path class="cls-1" d="M388.92,133l-9.05,2.85a7.85,7.85,0,0,1-9-3.4,39.9,39.9,0,0,1-5.16-13.72c-4.12,11.63-12.19,18.38-25.69,18.38-24.57,0-36.19-18.57-36.19-46.69,0-28.69,19.13-49.88,47.07-49.88,10.47,0,23.57,2.46,31.14,4.07a7.81,7.81,0,0,1,6.18,7.65V90.78c0,15.57,2.85,25.6,5.55,31.62A7.78,7.78,0,0,1,388.92,133Zm-30.37-62.9a7.77,7.77,0,0,0-7.62-7.82h-.07c-12.19,0-15.57,11.06-15.57,26.25,0,13.88.56,26.82,9.56,26.82,7.69,0,13.69-14.06,13.69-29.82V70.08Z"/><path class="cls-2" d="M443.31,9V136H412.37V9ZM523,136H488.5L445.37,66.39V64.14C467.5,53.45,474.63,36,480.63,9h30.76c-7.13,35.44-18.75,49.7-32.26,60.2Z"/><path class="cls-2" d="M620.15,130l-23.82,7.5s-6.75-6.38-9-18.75c-4.12,11.63-12.19,18.38-25.69,18.38-24.57,0-36.19-18.57-36.19-46.69,0-28.69,19.13-49.88,47.07-49.88,15.57,0,36.94,5.44,37.32,5.44V90.78C609.83,120.4,620.15,130,620.15,130ZM580.2,63.76a24.39,24.39,0,0,0-7.69-1.5c-12.19,0-15.57,11.06-15.57,26.25,0,13.88.56,26.82,9.56,26.82,7.69,0,13.69-14.06,13.69-29.82V63.76Z"/><path class="cls-2" d="M629,68.08c0-15.94,12.38-27.94,33.19-27.94A81.76,81.76,0,0,1,696.09,48l-9.38,21C682.59,67,674,62.27,666.27,62.27c-3.94,0-7.13,1.69-7.13,5.44,0,3.94,5.63,7.88,14.07,11.44,14.81,6.19,23.44,14.06,23.44,28.51,0,16.13-11.63,30.19-33.76,30.19-17.25,0-31.13-5.81-37.32-8.63l9.75-21.57c2.44,1.12,13.5,7.69,21.94,7.69,5.25,0,9-2.06,9-6,0-4.69-4.69-8.63-11.06-11.06C636.46,90.77,629,82.14,629,68.08Z"/><path class="cls-2" d="M766.6,40.51c19.5,0,27,12.75,27,32.63V136H763.78V77.45c0-8.82-1.69-14.63-7.5-14.63-6.56,0-14.25,9-14.25,23.63V136H712.4V5.06L742,0V49C748.6,43.13,757.41,40.51,766.6,40.51Z"/></g></g></svg>