<svg width="965" height="168" viewBox="0 0 965 168" fill="none" xmlns="http://www.w3.org/2000/svg">
<path d="M37.6318 29.8283V146.843C37.6318 157.253 29.2029 165.701 18.8159 165.701C8.42892 165.682 0 157.253 0 146.843V29.8283C0 19.4183 8.42892 10.9706 18.8159 10.9706C29.2029 10.9706 37.6318 19.4183 37.6318 29.8283Z" fill="#20A2A5"/>
<path d="M129.287 94.3823C129.287 83.8601 127.236 76.5526 120.168 76.5526C111.739 76.5526 102.844 88.4391 102.844 108.325V150.17C102.844 158.73 95.907 165.683 87.3662 165.683H82.2939C73.7531 165.683 66.816 158.73 66.816 150.17V106.269C66.816 91.1677 64.6156 80.3465 62.0794 72.8707C59.2449 64.5726 63.6645 55.5456 72.0188 52.9104C79.4594 50.5555 87.59 54.0691 90.7415 61.2272C91.879 63.8063 92.9233 66.7967 93.7252 70.1608C101.707 55.9941 116.532 49.3594 132.718 49.3594C156.439 49.3594 165.557 65.1333 165.557 89.1306V150.189C165.557 158.749 158.62 165.701 150.08 165.701H144.784C136.243 165.701 129.306 158.749 129.306 150.189V94.3823H129.287Z" fill="#20A2A5"/>
<path d="M185.38 82.9629C185.38 63.5446 200.429 48.9107 225.734 48.9107C236.009 48.9107 245.408 50.8544 252.643 53.0037C260.513 55.3399 264.541 64.0679 261.184 71.581C258.256 78.1597 250.723 81.2996 243.991 78.7391C239.776 77.1318 235.133 75.8796 230.732 75.8796C225.939 75.8796 222.061 77.9355 222.061 82.5144C222.061 87.3176 228.904 92.1208 239.161 96.4567C257.175 104.007 267.674 113.595 267.674 131.2C267.674 150.862 253.538 168 226.629 168C214.545 168 203.823 165.645 195.468 163.01C187.692 160.543 183.776 151.871 187.133 144.433L187.375 143.872C190.396 137.162 198.191 134.135 204.979 136.938C209.697 138.882 215.068 140.564 219.786 140.564C226.163 140.564 230.732 138.059 230.732 133.256C230.732 127.537 225.026 122.734 217.287 119.781C194.499 110.605 185.38 100.101 185.38 82.9629Z" fill="#20A2A5"/>
<path d="M294.826 51.8817L297.268 37.0423C298.126 31.7906 302.117 27.5854 307.301 26.4454L314.182 24.9315C322.275 23.156 329.94 29.3422 329.94 37.6404V51.8631H356.849L352.523 78.3647H329.94V129.331C329.94 135.966 333.595 139.386 340.439 139.386C342.192 139.386 344.038 139.236 345.828 139.031C352.262 138.246 358.266 142.451 359.87 148.749C361.716 155.982 357.11 163.271 349.8 164.729C344.523 165.794 338.126 166.598 330.63 166.598C307.823 166.598 294.136 158.15 294.136 135.517V78.3834H276.122V51.8817H294.826Z" fill="#20A2A5"/>
<path d="M472.915 162.057L461.912 165.533C457.735 166.86 453.222 165.141 450.929 161.384C448.598 157.553 445.987 151.965 444.663 144.676C439.647 158.842 429.838 167.066 413.427 167.066C383.553 167.066 369.418 144.433 369.418 110.156C369.418 75.1882 392.672 49.3594 426.649 49.3594C439.385 49.3594 455.311 52.3497 464.504 54.3121C468.887 55.2466 472.02 59.134 472.02 63.6381V110.605C472.02 129.575 475.488 141.816 478.77 149.124C481.083 154.319 478.304 160.356 472.915 162.057ZM435.973 85.3927C435.973 80.2344 431.87 75.8984 426.705 75.861C426.686 75.861 426.649 75.861 426.63 75.861C411.805 75.861 407.702 89.3362 407.702 107.857C407.702 124.771 408.392 140.545 419.339 140.545C428.681 140.545 435.992 123.407 435.992 104.213V85.3927H435.973Z" fill="#20A2A5"/>
<path d="M539.041 10.9705V165.701H501.409V10.9705H539.041ZM635.955 165.682H593.997L541.54 80.8878V78.1405C568.449 65.1139 577.12 43.864 584.412 10.9518H621.801C613.13 54.1432 598.994 71.5057 582.584 84.308L635.955 165.682Z" fill="#67BE9F"/>
<path d="M754.071 158.375L725.111 167.514C725.111 167.514 716.906 159.739 714.164 144.657C709.148 158.824 699.339 167.047 682.929 167.047C653.055 167.047 638.919 144.414 638.919 110.137C638.919 75.1695 662.174 49.3406 696.15 49.3406C715.078 49.3406 741.074 55.9754 741.521 55.9754V110.605C741.521 146.731 754.071 158.375 754.071 158.375ZM705.493 77.7113C703.442 76.7955 698.873 75.8797 696.15 75.8797C681.325 75.8797 677.223 89.3548 677.223 107.876C677.223 124.79 677.913 140.564 688.859 140.564C698.202 140.564 705.512 123.426 705.512 104.232V77.7113H705.493Z" fill="#67BE9F"/>
<path d="M764.775 82.9629C764.775 63.5446 779.824 48.9107 805.13 48.9107C827.936 48.9107 846.398 58.5171 846.398 58.5171L835.023 84.103C830.006 81.5799 819.526 75.8796 810.165 75.8796C805.372 75.8796 801.493 77.9355 801.493 82.5144C801.493 87.3176 808.337 92.1208 818.594 96.4567C836.608 104.007 847.107 113.595 847.107 131.2C847.107 150.862 832.971 168 806.062 168C785.083 168 768.207 160.917 760.691 157.478L772.552 131.2C775.517 132.565 788.962 140.564 799.237 140.564C805.615 140.564 810.183 138.059 810.183 133.256C810.183 127.537 804.477 122.734 796.738 119.781C773.894 110.605 764.775 100.101 764.775 82.9629Z" fill="#67BE9F"/>
<path d="M932.161 49.3589C955.881 49.3589 965 64.8898 965 89.1301V165.682H928.748V94.3818C928.748 83.6354 926.697 76.5521 919.629 76.5521C911.648 76.5521 902.305 87.5228 902.305 105.353V165.682H866.277V6.16753L902.287 0V59.6568C910.268 52.5735 920.972 49.3589 932.161 49.3589Z" fill="#67BE9F"/>
</svg>
