<svg xmlns="http://www.w3.org/2000/svg" viewBox="0 0 36 18"><defs><style>.cls-1{fill:#f8f9fd;}.cls-2{fill:#ef5350;}.cls-3{fill:#1e88e5;}.cls-4{fill:#4caf50;}</style></defs><g id="Layer_2" data-name="Layer 2"><g id="Layer_1-2" data-name="Layer 1"><path class="cls-1" d="M0,0H18V18H0Z"/><path class="cls-2" d="M11,4h7V0H11ZM0,18H18V14H0Zm11-7h7V7H11Z"/><path class="cls-3" d="M0,0H11V11H0Z"/><path class="cls-1" d="M2.42,1.22a.1.1,0,0,1,.12,0,.08.08,0,0,1,0,0l.27.71A.08.08,0,0,0,2.93,2l.76,0a.09.09,0,0,1,.05.16l-.6.47a.1.1,0,0,0,0,.1l.2.72a.08.08,0,0,1-.06.11.08.08,0,0,1-.08,0l-.63-.41a.09.09,0,0,0-.1,0l-.63.41a.09.09,0,0,1-.13,0,.11.11,0,0,1,0-.08l.2-.73a.09.09,0,0,0,0-.1l-.59-.46a.09.09,0,0,1,0-.13.06.06,0,0,1,.06,0l.76,0a.08.08,0,0,0,.08-.06l.27-.7Zm0,3a.1.1,0,0,1,.12,0l0,0,.27.71A.08.08,0,0,0,2.93,5l.76,0a.09.09,0,0,1,.05.16l-.6.47a.1.1,0,0,0,0,.1l.2.72a.08.08,0,0,1-.06.11.08.08,0,0,1-.08,0l-.63-.41a.09.09,0,0,0-.1,0l-.63.41a.09.09,0,0,1-.13,0,.11.11,0,0,1,0-.08l.2-.73a.09.09,0,0,0,0-.1l-.59-.46a.09.09,0,0,1,0-.13.06.06,0,0,1,.06,0l.76,0a.08.08,0,0,0,.08-.06l.27-.7Zm0,3a.1.1,0,0,1,.12,0l0,0,.27.71A.08.08,0,0,0,2.93,8l.76,0a.09.09,0,0,1,.05.16l-.6.47a.1.1,0,0,0,0,.1l.2.72a.08.08,0,0,1-.06.11.08.08,0,0,1-.08,0l-.63-.41a.09.09,0,0,0-.1,0l-.63.41a.09.09,0,0,1-.13,0,.11.11,0,0,1,0-.08l.2-.73a.09.09,0,0,0,0-.1l-.59-.46a.09.09,0,0,1,0-.13.06.06,0,0,1,.06,0l.76,0a.08.08,0,0,0,.08-.06l.27-.7Zm3-6a.1.1,0,0,1,.12,0,.08.08,0,0,1,0,0l.27.71A.08.08,0,0,0,5.93,2l.76,0a.09.09,0,0,1,0,.16l-.6.47a.1.1,0,0,0,0,.1l.2.72a.08.08,0,0,1-.06.11.08.08,0,0,1-.08,0l-.63-.41a.09.09,0,0,0-.1,0l-.63.41a.09.09,0,0,1-.13,0,.11.11,0,0,1,0-.08l.2-.73a.09.09,0,0,0,0-.1l-.59-.46a.09.09,0,0,1,0-.13.06.06,0,0,1,.06,0l.76,0a.08.08,0,0,0,.08-.06l.27-.7Zm0,3a.1.1,0,0,1,.12,0l0,0,.27.71A.08.08,0,0,0,5.93,5l.76,0a.09.09,0,0,1,0,.16l-.6.47a.1.1,0,0,0,0,.1l.2.72a.08.08,0,0,1-.06.11.08.08,0,0,1-.08,0l-.63-.41a.09.09,0,0,0-.1,0l-.63.41a.09.09,0,0,1-.13,0,.11.11,0,0,1,0-.08l.2-.73a.09.09,0,0,0,0-.1l-.59-.46a.09.09,0,0,1,0-.13.06.06,0,0,1,.06,0l.76,0a.08.08,0,0,0,.08-.06l.27-.7Zm0,3a.1.1,0,0,1,.12,0l0,0,.27.71A.08.08,0,0,0,5.93,8l.76,0a.09.09,0,0,1,0,.16l-.6.47a.1.1,0,0,0,0,.1l.2.72a.08.08,0,0,1-.06.11.08.08,0,0,1-.08,0l-.63-.41a.09.09,0,0,0-.1,0l-.63.41a.09.09,0,0,1-.13,0,.11.11,0,0,1,0-.08l.2-.73a.09.09,0,0,0,0-.1l-.59-.46a.09.09,0,0,1,0-.13.06.06,0,0,1,.06,0l.76,0a.08.08,0,0,0,.08-.06l.27-.7Zm3-6a.1.1,0,0,1,.12,0,.08.08,0,0,1,0,0l.27.71A.08.08,0,0,0,8.93,2l.76,0a.09.09,0,0,1,.05.16l-.6.47a.1.1,0,0,0,0,.1l.2.72a.08.08,0,0,1-.06.11.08.08,0,0,1-.08,0l-.63-.41a.09.09,0,0,0-.1,0l-.63.41a.09.09,0,0,1-.13,0,.11.11,0,0,1,0-.08l.2-.73a.09.09,0,0,0,0-.1l-.59-.46a.09.09,0,0,1,0-.13.06.06,0,0,1,.06,0l.76,0a.08.08,0,0,0,.08-.06l.27-.7Zm0,3a.1.1,0,0,1,.12,0,.08.08,0,0,1,0,0l.27.71A.08.08,0,0,0,8.93,5l.76,0a.09.09,0,0,1,.05.16l-.6.47a.1.1,0,0,0,0,.1l.2.72a.08.08,0,0,1-.06.11.08.08,0,0,1-.08,0l-.63-.41a.09.09,0,0,0-.1,0l-.63.41a.09.09,0,0,1-.13,0,.11.11,0,0,1,0-.08l.2-.73a.09.09,0,0,0,0-.1l-.59-.46a.09.09,0,0,1,0-.13.06.06,0,0,1,.06,0l.76,0a.08.08,0,0,0,.08-.06l.27-.7Zm0,3a.1.1,0,0,1,.12,0,.08.08,0,0,1,0,0l.27.71A.08.08,0,0,0,8.93,8l.76,0a.09.09,0,0,1,.05.16l-.6.47a.1.1,0,0,0,0,.1l.2.72a.08.08,0,0,1-.06.11.08.08,0,0,1-.08,0l-.63-.41a.09.09,0,0,0-.1,0l-.63.41a.09.09,0,0,1-.13,0,.11.11,0,0,1,0-.08l.2-.73a.09.09,0,0,0,0-.1l-.59-.46a.09.09,0,0,1,0-.13.06.06,0,0,1,.06,0l.76,0a.08.08,0,0,0,.08-.06l.27-.7Z"/><path class="cls-2" d="M18,0H36V18H18Z"/><path class="cls-1" d="M24,0h6V18H24Z"/><path class="cls-2" d="M26,8h2V9H26Z"/><path class="cls-3" d="M26,7h1V8H26Z"/><path class="cls-4" d="M26,9h2v1H26ZM25,7h1V9H25Zm3,0h1V9H28Z"/></g></g></svg>